# xmcd CD database file
#
# Track frame offsets:
#	182
#	12485
#	39492
#	61815
#	106807
#	136310
#	153795
#	185995
#	210470
#	232102
#	240427
#	268747
#	310167
#	333132
#
# Disc length: 4598 seconds
#
# Revision: 4
# Processed by: cddbd v1.5.2PL0 Copyright (c) Steve Scherf et al.
# Submitted via: CDex 1.51
#
DISCID=ba11f40e
DTITLE=Pat Metheny - Secret Story
DYEAR=1992
DGENRE=Jazz
TTITLE0=Above the Treetops
TTITLE1=Facing West
TTITLE2=Cathedral in a Suitcase
TTITLE3=Finding and Believing
TTITLE4=The Longest Summer
TTITLE5=Sunlight
TTITLE6=Rain River
TTITLE7=Always and Forever
TTITLE8=See the World
TTITLE9=As a Flower Blossoms (I am running to you)
TTITLE10=Antonia
TTITLE11=The Truth Will Always Be
TTITLE12=Tell Her You Saw Me
TTITLE13=Not To Be Forgotten (Our Final Hour)
EXTD=YEAR: 1992
EXTT0=
EXTT1=
EXTT2=
EXTT3=
EXTT4=
EXTT5=
EXTT6=
EXTT7=
EXTT8=
EXTT9=
EXTT10=
EXTT11=
EXTT12=
EXTT13=
PLAYORDER=
